<svg id="Layer_1" data-name="Layer 1" xmlns="http://www.w3.org/2000/svg" viewBox="0 0 500 500"><defs><style>.cls-1{fill:#db9200;}.cls-2{fill:#ffc91d;}.cls-3{fill:#ffe36c;}.cls-4{fill:none;}</style></defs><title>power-bi-logo-freelogovectors.net</title><g id="c"><path class="cls-1" d="M404.29,481.19H288a19.52,19.52,0,0,1-19.56-19.56V38.37A19.52,19.52,0,0,1,288,18.81H404.29a19.51,19.51,0,0,1,19.55,19.56V461.63C424.37,472.2,415.39,481.19,404.29,481.19Z"/><path class="cls-2" d="M306.53,481.19H190.28a19.51,19.51,0,0,1-19.55-19.56V148.28a19.5,19.5,0,0,1,19.55-19.55H306.53a19.5,19.5,0,0,1,19.55,19.55V461.63a19.86,19.86,0,0,1-19.55,19.56Z"/><path class="cls-3" d="M211.94,481.19H95.69a19.51,19.51,0,0,1-19.55-19.56V269.29a19.5,19.5,0,0,1,19.55-19.55H211.94a19.5,19.5,0,0,1,19.55,19.55V461.11C231.49,472.2,222.51,481.19,211.94,481.19Z"/></g><rect class="cls-4" width="500" height="500"/></svg>